<?xml version="1.0" encoding="iso-8859-1"?>
<!-- Generator: Adobe Illustrator 18.1.1, SVG Export Plug-In . SVG Version: 6.00 Build 0)  -->
<svg xmlns="http://www.w3.org/2000/svg" xmlns:xlink="http://www.w3.org/1999/xlink" version="1.1" id="Capa_1" x="0px" y="0px" viewBox="0 0 27.963 27.963" style="enable-background:new 0 0 27.963 27.963;" xml:space="preserve" width="512px" height="512px">
<g>
	<g id="c128__x2B_">
		<path d="M13.981,0C6.261,0,0.002,6.259,0.002,13.979c0,7.724,6.259,13.984,13.979,13.984c7.722,0,13.98-6.261,13.98-13.984    C27.962,6.259,21.703,0,13.981,0z M13.981,26.531c-6.931,0-12.55-5.62-12.55-12.553c0-6.931,5.619-12.547,12.55-12.547    c6.93,0,12.552,5.616,12.552,12.547C26.533,20.911,20.911,26.531,13.981,26.531z" fill="#933EC5"/>
		<polygon points="16.162,6.858 11.864,6.858 11.864,11.759 6.862,11.759 6.862,16.058 11.864,16.058 11.864,21.1 16.162,21.1     16.162,16.058 21.101,16.058 21.101,11.759 16.162,11.759   " fill="#933EC5"/>
	</g>
	<g id="Capa_1_151_">
	</g>
</g>
<g>
</g>
<g>
</g>
<g>
</g>
<g>
</g>
<g>
</g>
<g>
</g>
<g>
</g>
<g>
</g>
<g>
</g>
<g>
</g>
<g>
</g>
<g>
</g>
<g>
</g>
<g>
</g>
<g>
</g>
</svg>
